<?xml version="1.0" encoding="UTF-8" standalone="no"?><!DOCTYPE svg PUBLIC "-//W3C//DTD SVG 1.1//EN" "http://www.w3.org/Graphics/SVG/1.1/DTD/svg11.dtd"><svg width="100%" height="100%" viewBox="0 0 500 500" version="1.1" xmlns="http://www.w3.org/2000/svg" xmlns:xlink="http://www.w3.org/1999/xlink" xml:space="preserve" style="fill-rule:evenodd;clip-rule:evenodd;stroke-linejoin:round;stroke-miterlimit:1.41421;"><path d="M182.35,91.117c2.55,9.368 6.487,17.172 11.669,23.425c3.876,4.69 8.43,8.473 13.398,11.417c7.465,4.427 15.8,6.998 24.554,8.499c8.766,1.497 18.001,1.937 27.515,1.939c9.665,0 19.622,-0.461 29.616,-0.835c4.498,-0.169 9.134,-0.238 13.866,-0.238c20.23,-0.004 42.209,1.276 63.245,1.279c10.949,-0.001 21.654,-0.348 31.792,-1.445c7.605,-0.823 14.895,-2.068 21.746,-3.947c10.261,-2.819 19.619,-7.079 27.227,-13.693c3.794,-3.3 7.119,-7.186 9.794,-11.65c2.68,-4.461 4.706,-9.484 6.013,-15.009c1.006,-4.243 -1.619,-8.498 -5.862,-9.504c-4.244,-1.005 -8.499,1.619 -9.504,5.863c-0.86,3.62 -2.077,6.746 -3.601,9.505c-2.672,4.817 -6.276,8.591 -10.97,11.76c-3.52,2.367 -7.662,4.358 -12.378,5.987c-7.068,2.449 -15.413,4.067 -24.602,5.034c-9.187,0.973 -19.211,1.308 -29.655,1.308c-20.404,0.003 -42.377,-1.275 -63.245,-1.28c-4.887,0 -9.716,0.071 -14.456,0.25c-10.082,0.377 -19.866,0.825 -29.026,0.823c-8.011,0.002 -15.542,-0.343 -22.338,-1.319c-5.096,-0.728 -9.773,-1.809 -13.954,-3.315c-6.284,-2.27 -11.412,-5.416 -15.634,-9.93c-4.209,-4.528 -7.636,-10.548 -9.975,-19.082c-1.148,-4.206 -5.49,-6.686 -9.696,-5.538c-4.207,1.148 -6.688,5.488 -5.539,9.696" style="fill:#aaf2d6;fill-rule:nonzero;"/><path d="M462.478,463.563l-413.229,0l0,-413.23l413.229,0l0,413.23Zm-407.896,-407.896l0,402.562l402.563,0l0,-402.562l-402.563,0Z" style="fill:#fff;"/><path d="M24.76,239.254l84.153,-21.804c3.925,-1.017 5.92,-6.409 4.903,-10.336l-14.721,-56.806c-1.017,-3.927 -5.017,-6.281 -8.944,-5.264l-84.151,21.805l21.503,32.316l-2.743,40.089Z" style="fill:#fff;fill-rule:nonzero;"/><path d="M136.108,297.949c-1.72,0.463 -4.16,-3.363 -5.456,-8.558l-35.139,-140.853c-1.295,-5.187 0.771,-10.226 0.771,-10.226c0,0 4.163,3.363 5.457,8.55l35.138,140.855c1.295,5.193 0.951,9.769 -0.771,10.232" style="fill:#aaf2d6;fill-rule:nonzero;"/><path d="M36.522,179.276l0.282,1.089l0.021,-1.125l-0.01,0.491l0.012,-0.491l-0.002,0l-0.01,0.491l0.012,-0.491c-0.004,0 -0.304,-0.008 -0.753,-0.074c-0.338,-0.047 -0.76,-0.129 -1.204,-0.262c-0.666,-0.195 -1.375,-0.507 -1.934,-0.955c-0.282,-0.223 -0.528,-0.477 -0.73,-0.772c-0.202,-0.297 -0.363,-0.635 -0.469,-1.042l-1.089,0.282l0.282,1.089l18.465,-4.785l17.738,19.366l2.573,-0.666l-19.598,-21.209l-20.832,5.398l0.282,1.089c0.155,0.596 0.394,1.13 0.693,1.6c0.521,0.82 1.217,1.425 1.932,1.866c1.076,0.661 2.205,0.978 3.072,1.145c0.87,0.168 1.482,0.179 1.529,0.181l0.153,0.003l13.27,-3.438l-1.739,-1.875" style="fill:#1fdb9b;fill-rule:nonzero;"/><path d="M52.539,180.848l-10.774,2.792l0.283,1.09l0.021,-1.126l-0.01,0.517l0.012,-0.517l-0.002,0l-0.01,0.517l0.012,-0.517c-0.002,0 -0.301,-0.008 -0.748,-0.075c-0.337,-0.051 -0.758,-0.136 -1.203,-0.272c-0.666,-0.204 -1.374,-0.527 -1.944,-0.995c-0.285,-0.234 -0.536,-0.503 -0.746,-0.818c-0.21,-0.315 -0.379,-0.678 -0.492,-1.112l-1.089,0.28l0.282,1.091l11.73,-3.039l-0.564,-2.179l-12.82,3.322l0.283,1.089c0.157,0.61 0.398,1.161 0.698,1.642c0.525,0.846 1.222,1.475 1.941,1.934c1.082,0.689 2.218,1.02 3.09,1.196c0.875,0.172 1.49,0.185 1.537,0.187l0.154,0.001l12.098,-3.133" style="fill:#1fdb9b;fill-rule:nonzero;"/><path d="M51.982,174.555l5.38,-1.394l8.994,9.752l1.655,-1.526l-9.909,-10.743l-6.684,1.733l0.564,2.178Z" style="fill:#1fdb9b;fill-rule:nonzero;"/><path d="M62.357,184.921l14.412,-3.734l1.869,7.211l4.214,-3.059l2.042,7.883l-5.336,-0.583l1.776,6.856l-28.824,7.469l-4.688,-18.098l9.719,-2.518l-1.737,-1.875l-10.724,2.779l5.818,22.454l33.179,-8.597l-1.524,-5.879l5.338,0.584l-3.689,-14.235l-4.214,3.058l-1.605,-6.192l-16.59,4.297l0.564,2.179Z" style="fill:#1fdb9b;fill-rule:nonzero;"/><path d="M174.296,84.581c-14.502,10.702 -34.932,7.619 -45.634,-6.883c14.503,-10.7 34.933,-7.619 45.634,6.883" style="fill:#aaf2d6;fill-rule:nonzero;"/><path d="M236.136,63.133c-10.933,14.328 -8.18,34.806 6.148,45.739c10.933,-14.329 8.18,-34.807 -6.148,-45.739" style="fill:#aaf2d6;fill-rule:nonzero;"/><path d="M177.141,103.212c-17.573,4.004 -28.572,21.497 -24.566,39.068c17.571,-4.004 28.57,-21.495 24.566,-39.068" style="fill:#aaf2d6;fill-rule:nonzero;"/><path d="M286.8,262.671c-13.603,-5.005 -27.404,-8.569 -38.678,-17.766c-11.475,-9.362 -20.382,-1.342 -32.745,4.463c-2.053,0.963 -4.119,1.936 -5.942,3.282c-12.827,9.483 -3.904,20.191 0.975,30.263c3.697,7.639 6.866,15.586 10.288,23.353c2.26,5.131 3.326,11.374 8.817,20.011c5.332,12.104 10.865,24.503 20.192,33.882c14.71,14.791 37.975,19.158 57.6,13.02c20.27,-6.339 33.319,-19.132 38.51,-40.179c3.22,-13.052 0.907,-27.377 -6.256,-38.754c-11.215,-17.812 -34.012,-24.69 -52.761,-31.575" style="fill:#3f3f49;fill-rule:nonzero;"/><path d="M184.121,241.936c2.869,7.889 -1.201,16.609 -9.089,19.478c-7.889,2.869 -16.609,-1.201 -19.478,-9.089c-2.869,-7.889 1.201,-16.609 9.089,-19.478c7.889,-2.869 16.609,1.201 19.478,9.089" style="fill:#aaf2d6;fill-rule:nonzero;"/><path d="M173.904,258.312c-6.171,2.456 -12.903,-1.222 -15.249,-7.115c-2.455,-6.171 1.222,-12.903 7.116,-15.249c6.171,-2.455 12.903,1.222 15.249,7.116c2.081,6.309 -0.944,12.793 -7.116,15.248m13.528,-16.749c-0.041,-0.243 -0.107,-0.494 -0.21,-0.755c-0.087,-0.262 -0.195,-0.495 -0.32,-0.707c-4.019,-9.077 -13.863,-13.498 -23.386,-10.355c-9.77,3.225 -14.143,14.373 -11.063,23.706c3.225,9.77 14.373,14.143 23.706,11.063c9.509,-3.14 13.886,-13.779 11.273,-22.952" style="fill:#3f3f49;fill-rule:nonzero;"/><path d="M268.695,211.181c2.869,7.888 -1.201,16.608 -9.089,19.477c-7.888,2.869 -16.608,-1.2 -19.477,-9.089c-2.869,-7.888 1.2,-16.608 9.089,-19.477c7.888,-2.869 16.608,1.201 19.477,9.089" style="fill:#aaf2d6;fill-rule:nonzero;"/><path d="M258.478,227.557c-6.171,2.456 -12.902,-1.222 -15.248,-7.116c-2.456,-6.171 1.222,-12.903 7.116,-15.248c6.171,-2.456 12.902,1.222 15.248,7.116c2.082,6.308 -0.943,12.791 -7.116,15.248m13.528,-16.749c-0.041,-0.245 -0.106,-0.496 -0.21,-0.755c-0.087,-0.262 -0.195,-0.497 -0.32,-0.707c-4.018,-9.077 -13.86,-13.5 -23.386,-10.355c-9.77,3.225 -14.143,14.372 -11.062,23.706c3.225,9.77 14.372,14.143 23.706,11.062c9.509,-3.139 13.885,-13.78 11.272,-22.951" style="fill:#3f3f49;fill-rule:nonzero;"/><path d="M255.824,210.603c-5.226,-13.934 -16.319,-24.88 -30.464,-29.621c-8.667,-2.906 -17.832,-3.188 -26.512,-1.151c-0.012,-0.053 -0.015,-0.107 -0.028,-0.159c-0.487,-1.964 -2.261,-3.68 -4.282,-3.625c-2.02,0.055 -3.792,2.342 -2.972,4.191c-0.943,-3.547 -2.51,-7.034 -5.175,-9.555c-2.667,-2.521 -6.579,-3.922 -10.109,-2.922c-0.835,0.236 -1.651,0.61 -2.266,1.221c-0.818,0.808 -1.212,1.96 -1.379,3.098c-0.589,4.009 1.578,8.277 5.163,10.167c-2.189,-0.917 -4.786,-1.124 -6.892,-0.031c-2.106,1.092 -3.488,3.686 -2.74,5.936c0.097,0.292 0.232,0.583 0.461,0.788c0.36,0.323 0.88,0.38 1.362,0.423c1.266,0.11 2.531,0.221 3.796,0.331c-1.234,0.561 -2.111,1.836 -2.197,3.189c0.824,0.674 1.882,0.794 2.966,0.686c-7.495,7.922 -12.227,18.429 -13.261,29.288c-1.446,15.215 4.684,30.019 15.562,40.552c16.249,15.734 41.929,18.211 60.691,5.628c18.691,-12.535 25.612,-37.616 18.276,-58.434" style="fill:#3f3f49;fill-rule:nonzero;"/><path d="M309.816,191.476c-0.343,-0.962 -2.266,-1.934 -2.983,-2.48c-0.4,-0.307 -0.815,-0.629 -1.035,-1.08c-0.221,-0.453 -0.183,-1.074 0.222,-1.373c0.236,-0.174 0.544,-0.206 0.838,-0.208c1.64,-0.002 2.675,0.827 4.012,1.562c0.771,-1.282 0.766,-3.722 1.183,-5.253c0.11,-0.4 0.233,-0.815 0.509,-1.127c0.275,-0.31 0.746,-0.489 1.118,-0.303c0.228,0.113 0.379,0.338 0.502,0.561c0.661,1.197 0.609,2.483 0.997,3.748c0.381,1.232 0.019,3.377 1.462,3.592c1.066,0.158 2.154,0.171 3.223,0.038c0.419,-0.052 0.857,-0.123 1.25,0.026c0.392,0.15 0.699,0.622 0.509,0.998c-0.053,0.103 -0.138,0.188 -0.222,0.27c-0.741,0.719 -1.622,1.214 -2.411,1.852c0.312,0.748 2.001,0.973 2.752,1.252c0.266,0.1 0.553,0.216 0.691,0.464c0.213,0.385 -0.051,0.873 -0.394,1.151c-0.826,0.675 -1.996,0.676 -3.062,0.647c-2.523,-0.072 -3.253,-0.171 -4.254,2.17c-0.997,2.334 -2.02,4.658 -3.047,6.981c-2.092,4.728 -4.237,9.432 -6.494,14.082c-7.339,15.126 -15.939,29.828 -27.407,42.226c-3.005,3.249 -7.052,6.591 -11.354,5.541c-3.727,-0.907 -5.997,-5.08 -5.704,-8.906c0.586,-7.593 8.445,-11.224 13.379,-15.978c6.974,-6.724 12.484,-13.649 17.725,-21.825c3.296,-5.67 7.118,-11.098 10.657,-16.621c1.777,-2.769 3.553,-5.539 5.328,-8.31c0.497,-0.776 2.154,-2.515 2.059,-3.484c-0.007,-0.072 -0.023,-0.143 -0.049,-0.213" style="fill:#3f3f49;fill-rule:nonzero;"/><path d="M242.388,209.569c-3.013,-8.285 -13.085,-12.227 -22.497,-8.805c-8.466,3.079 -13.51,11.069 -12.245,18.675c-3.916,-6.642 -12.913,-9.525 -21.38,-6.447c-9.411,3.422 -14.598,12.913 -11.586,21.198c1.908,5.243 6.64,8.743 12.244,9.742c-0.665,4.08 -0.35,8.279 1.117,12.313c5.111,14.056 22.198,20.743 38.164,14.936c15.965,-5.805 24.765,-21.906 19.654,-35.962c-1.439,-3.955 -3.825,-7.327 -6.868,-10.001c3.855,-4.403 5.351,-10.279 3.397,-15.649" style="fill:#aaf2d6;fill-rule:nonzero;"/><path d="M192.354,226.674c0.744,2.051 -0.312,4.316 -2.363,5.061c-2.048,0.746 -4.314,-0.312 -5.06,-2.361c-0.745,-2.05 0.312,-4.315 2.362,-5.062c2.049,-0.744 4.316,0.314 5.061,2.362" style="fill:#3f3f49;fill-rule:nonzero;"/><path d="M188.735,227.713c0.271,0.744 -0.113,1.568 -0.858,1.839c-0.745,0.272 -1.568,-0.114 -1.84,-0.858c-0.271,-0.745 0.113,-1.569 0.859,-1.839c0.745,-0.271 1.568,0.113 1.839,0.858" style="fill:#fff;fill-rule:nonzero;"/><path d="M227.555,213.28c0.745,2.049 -0.311,4.316 -2.362,5.061c-2.049,0.744 -4.314,-0.312 -5.06,-2.362c-0.745,-2.049 0.311,-4.314 2.362,-5.061c2.049,-0.744 4.316,0.312 5.06,2.362" style="fill:#3f3f49;fill-rule:nonzero;"/><path d="M223.937,214.319c0.271,0.744 -0.113,1.568 -0.858,1.838c-0.745,0.271 -1.568,-0.113 -1.84,-0.857c-0.271,-0.745 0.114,-1.569 0.859,-1.839c0.745,-0.271 1.568,0.113 1.839,0.858" style="fill:#fff;fill-rule:nonzero;"/><path d="M135.927,278.24c-0.506,-0.886 0.011,-2.979 0.064,-3.88c0.027,-0.501 0.054,-1.025 -0.145,-1.487c-0.198,-0.463 -0.695,-0.839 -1.186,-0.727c-0.285,0.066 -0.511,0.279 -0.703,0.5c-1.072,1.244 -1.117,2.567 -1.432,4.062c-1.475,-0.251 -3.322,-1.847 -4.754,-2.528c-0.376,-0.177 -0.769,-0.354 -1.186,-0.348c-0.415,0.005 -0.858,0.246 -0.96,0.648c-0.062,0.248 0.009,0.509 0.099,0.748c0.475,1.281 1.488,2.08 2.191,3.2c0.688,1.091 2.551,2.213 1.772,3.45c-0.574,0.91 -1.275,1.744 -2.072,2.469c-0.312,0.284 -0.651,0.567 -0.794,0.964c-0.143,0.396 0.015,0.935 0.423,1.035c0.115,0.028 0.235,0.02 0.351,0.01c1.029,-0.095 1.979,-0.439 2.976,-0.621c0.364,0.723 -0.568,2.15 -0.845,2.903c-0.098,0.266 -0.197,0.559 -0.098,0.827c0.152,0.413 0.695,0.529 1.13,0.451c1.05,-0.189 1.813,-1.073 2.485,-1.901c1.59,-1.961 1.991,-2.579 4.419,-1.811c2.421,0.766 4.851,1.504 7.282,2.239c4.947,1.496 9.914,2.934 14.912,4.255c16.254,4.294 33.01,7.357 49.886,6.741c4.423,-0.16 9.595,-1.053 11.603,-4.998c1.741,-3.418 0.058,-7.86 -3.034,-10.13c-6.142,-4.506 -14.017,-0.912 -20.839,-0.271c-9.647,0.907 -18.49,0.571 -28.106,-0.784c-6.448,-1.197 -13.055,-1.839 -19.551,-2.753c-3.257,-0.459 -6.517,-0.916 -9.774,-1.376c-0.912,-0.129 -3.311,-0.006 -3.985,-0.712c-0.049,-0.051 -0.092,-0.11 -0.129,-0.175" style="fill:#3f3f49;fill-rule:nonzero;"/><path d="M305.543,365.859c-8.713,-3.804 -13.58,-3.415 -22.843,-1.378c-5.415,1.189 -11.126,2.536 -15.112,6.387c-2.241,2.167 -3.76,4.982 -4.87,7.895c-5.901,15.472 -0.102,34.106 12.384,44.982c9.596,8.355 22.373,12.166 34.964,11.985c12.712,-0.182 22.518,-4.31 34.855,-6.402c6.922,-1.174 14.83,6.407 20.122,3.761c1.701,-4.069 -0.879,-8.911 -4.624,-11.241c-3.745,-2.329 -8.323,-2.767 -12.718,-3.147c-7.319,-0.632 -14.638,-1.265 -21.955,-1.897c-9.45,-0.817 -20.194,-2.36 -25.48,-10.235c-5.582,-8.32 -2.288,-19.456 1.173,-28.857c1.436,-3.906 3.191,-7.852 4.104,-11.853" style="fill:#3f3f49;fill-rule:nonzero;"/><path d="M324.819,353.469c-5.023,-8.072 -5.343,-12.944 -4.667,-22.403c0.396,-5.53 0.901,-11.378 4.137,-15.879c1.819,-2.529 4.385,-4.44 7.106,-5.959c14.456,-8.076 33.734,-5.033 46.3,5.751c9.655,8.285 15.273,20.378 16.915,32.864c1.659,12.604 -1.01,22.902 -1.296,35.413c-0.133,5.8 3.617,11.481 4.303,16.597c0.264,1.973 -0.125,3.907 -2.11,3.743c-2.754,-0.228 -5.527,-1.765 -7.352,-3.924c-2.845,-3.367 -3.943,-7.836 -4.953,-12.128c-2.225,-9.447 -4.451,-18.894 -6.675,-28.34c-0.927,-3.937 -2.565,-7.705 -5.055,-10.889c-10.162,-12.993 -24.264,-6.738 -35.518,-0.621c-3.657,1.986 -7.308,4.292 -11.135,5.775" style="fill:#3f3f49;fill-rule:nonzero;"/><path d="M205.531,263.742c1.309,0.154 2.623,0.231 3.933,0.231c4.267,0 8.509,-0.815 12.492,-2.413c5.204,-2.089 9.804,-5.451 13.375,-9.778c0.576,-0.698 0.477,-1.732 -0.222,-2.308c-0.698,-0.577 -1.732,-0.479 -2.309,0.22c-3.22,3.904 -7.37,6.937 -12.066,8.822c-3.594,1.442 -7.42,2.177 -11.27,2.177c-1.182,0 -2.368,-0.069 -3.548,-0.209c-0.9,-0.106 -1.715,0.537 -1.822,1.437c-0.107,0.899 0.538,1.714 1.437,1.821Z" style="fill:#3f3f49;fill-rule:nonzero;"/><path d="M211.591,242.684c-0.231,-0.878 -0.772,-1.496 -1.212,-1.381c-0.439,0.116 -0.607,0.92 -0.377,1.797c0.231,0.88 0.774,1.496 1.212,1.382c0.44,-0.115 0.609,-0.921 0.377,-1.798" style="fill:#3f3f49;fill-rule:nonzero;"/><path d="M216.451,241.407c-0.231,-0.878 -0.772,-1.496 -1.212,-1.382c-0.44,0.117 -0.607,0.921 -0.377,1.8c0.231,0.877 0.774,1.496 1.212,1.379c0.44,-0.114 0.609,-0.92 0.377,-1.797" style="fill:#3f3f49;fill-rule:nonzero;"/><path d="M352.312,124.557c1.045,-4.321 3.233,-10.775 6.483,-13.841c5.7,-5.377 9.117,0.326 8.579,6.054c-1.117,11.883 -4.293,23.572 -4.369,35.505c-0.154,23.882 10.623,47.329 13.609,71.053c5.578,44.336 -2.841,87.152 -42.518,113.729c-8.885,5.953 -24.367,9.807 -33.54,2.324c-0.734,-0.599 -1.43,-1.274 -1.902,-2.096c-1.032,-1.796 -0.816,-4.229 0.518,-5.813c2.485,-2.953 8.146,-1.054 11.587,-1.496c4.574,-0.586 9.173,-2.805 13.12,-5.076c8.492,-4.883 15.629,-12.209 21.139,-20.243c15.693,-22.884 22.264,-51.848 17.981,-79.264c-3.382,-21.654 -13.19,-42.119 -14.658,-63.986c-0.832,-12.375 1.055,-24.794 3.971,-36.85" style="fill:#3f3f49;fill-rule:nonzero;"/><path d="M384.696,138.573c3.087,-4.729 3.699,-10.647 3.588,-16.295c-0.082,-4.125 -1.012,-14.007 -6.765,-14.287c-1.434,-0.069 -2.83,0.477 -4.073,1.192c-4.762,2.738 -6.511,6.703 -6.876,11.798c-0.381,5.276 -2.394,11.021 -0.017,16.132c0.975,2.098 2.667,3.898 4.805,4.783c2.135,0.885 4.711,0.78 6.653,-0.474c1.106,-0.713 1.967,-1.748 2.685,-2.849" style="fill:#3f3f49;fill-rule:nonzero;"/><path d="M404.92,139.151c3.087,-4.729 3.699,-10.649 3.587,-16.295c-0.082,-4.126 -1.012,-14.007 -6.765,-14.288c-1.433,-0.069 -2.829,0.478 -4.072,1.193c-4.762,2.738 -6.511,6.702 -6.877,11.797c-0.38,5.277 -2.393,11.021 -0.018,16.133c0.976,2.098 2.669,3.897 4.806,4.783c2.136,0.884 4.711,0.779 6.654,-0.476c1.105,-0.712 1.966,-1.747 2.685,-2.847" style="fill:#3f3f49;fill-rule:nonzero;"/></svg>