<?xml version="1.0" encoding="UTF-8" standalone="no"?><!DOCTYPE svg PUBLIC "-//W3C//DTD SVG 1.1//EN" "http://www.w3.org/Graphics/SVG/1.1/DTD/svg11.dtd"><svg width="100%" height="100%" viewBox="0 0 100 60" version="1.1" xmlns="http://www.w3.org/2000/svg" xmlns:xlink="http://www.w3.org/1999/xlink" xml:space="preserve" style="fill-rule:evenodd;clip-rule:evenodd;stroke-linejoin:round;stroke-miterlimit:1.41421;"><path d="M87.716,17.312l0,25.2l-10.489,-10.495l0,-4.136l10.489,-10.569Zm-16.773,9.195l0,26.038l-59.739,0l0,-45.341l59.739,0l0,19.303Zm3.144,-25.507l-65.948,0c-1.686,0 -3.139,1.379 -3.139,3.139l0,51.471c0,1.686 1.379,3.14 3.139,3.14l65.948,0c1.687,0 3.14,-1.379 3.14,-3.14l0,-14.859l11.412,11.412c0.61,0.61 1.378,0.918 2.222,0.918c0.376,0 0.838,-0.075 1.225,-0.228c1.145,-0.462 1.914,-1.607 1.914,-2.912l0,-40.212c0,-1.225 -0.769,-2.371 -1.914,-2.912c-1.151,-0.456 -2.53,-0.228 -3.373,0.695l-11.412,11.407l0,-14.78c-0.074,-1.76 -1.453,-3.139 -3.214,-3.139" style="fill:#4d4d4d;fill-rule:nonzero;"/></svg>